<?xml version="1.0" encoding="UTF-8" standalone="no"?>
<svg
   width="826.9267"
   height="828.37201"
   viewBox="0 0 826.9267 828.37201"
   version="1.1"
   xml:space="preserve"
   style="clip-rule:evenodd;fill-rule:evenodd;stroke-linejoin:round;stroke-miterlimit:2"
   id="svg15"
   sodipodi:docname="logo_icon.svg"
   inkscape:version="1.4.2 (f4327f4, 2025-05-13)"
   xmlns:inkscape="http://www.inkscape.org/namespaces/inkscape"
   xmlns:sodipodi="http://sodipodi.sourceforge.net/DTD/sodipodi-0.dtd"
   xmlns="http://www.w3.org/2000/svg"
   xmlns:svg="http://www.w3.org/2000/svg"><defs
     id="defs15" /><sodipodi:namedview
     id="namedview15"
     pagecolor="#505050"
     bordercolor="#eeeeee"
     borderopacity="1"
     inkscape:showpageshadow="0"
     inkscape:pageopacity="0"
     inkscape:pagecheckerboard="0"
     inkscape:deskcolor="#505050"
     inkscape:zoom="0.4035"
     inkscape:cx="183.39529"
     inkscape:cy="192.06939"
     inkscape:window-width="1920"
     inkscape:window-height="1009"
     inkscape:window-x="-8"
     inkscape:window-y="-8"
     inkscape:window-maximized="1"
     inkscape:current-layer="svg15" /><path
     d="M 367.45935,808.372 H 30.836351 c -3.768,0 -7.265,-1.957 -9.236,-5.168 -1.971,-3.211 -2.132,-7.215 -0.427,-10.575 L 413.46235,20 l 392.289,772.629 c 1.706,3.359 1.544,7.364 -0.427,10.575 -1.971,3.211 -5.468,5.168 -9.236,5.168 h -335.112 V 698.387 h 92.369 c 1.61,0 3.107,-0.826 3.965,-2.189 0.858,-1.362 0.957,-3.07 0.261,-4.522 l -139.884,-292.041 c -0.779,-1.627 -2.423,-2.662 -4.226,-2.662 -1.804,0 -3.447,1.035 -4.226,2.662 l -139.884,292.041 c -0.695,1.452 -0.597,3.159 0.261,4.522 0.858,1.362 2.355,2.189 3.965,2.189 h 92.369 v 108.474 c 0,0.835 0.677,1.511 1.511,1.511 z"
     style="fill:#333333"
     id="path1" /><path
     d="m 529.03235,678.387 -115.569,-241.277 -115.569,241.277 h 68.054 c 11.046,0 20,8.954 20,20 l -0.552,109.985 c 0.07,10.758 -6.892,20 -17.937,20 H 30.836351 c -10.721,0 -20.673,-5.569 -26.2810004,-14.706 -5.608,-9.137 -6.068,-20.532 -1.214,-30.091 L 395.63035,10.946 C 399.03935,4.231 405.93235,0 413.46335,0 c 7.531,0 14.424,4.231 17.833,10.946 l 392.289,772.629 c 4.854,9.56 4.394,20.954 -1.214,30.091 -5.608,9.137 -15.56,14.706 -26.281,14.706 h -335.112 c -11.046,0 -20,-8.954 -20,-20 V 698.387 c 0,-11.046 8.954,-20 20,-20 z M 30.837351,808.372 c 0,0 335.111999,-0.677 335.111999,-1.511 V 698.387 h -92.369 c -1.61,0 -3.107,-0.826 -3.965,-2.189 -0.858,-1.362 -0.957,-3.07 -0.261,-4.522 l 139.884,-292.041 c 0.779,-1.627 2.423,-2.662 4.226,-2.662 1.804,0 3.447,1.035 4.226,2.662 l 139.884,292.041 c 0.695,1.452 0.597,3.159 -0.261,4.522 -0.858,1.362 -2.355,2.189 -3.965,2.189 h -92.369 v 109.985 h 335.112 c 3.768,0 7.265,-1.957 9.236,-5.168 1.971,-3.211 2.132,-7.215 0.427,-10.575 L 413.46535,20 21.176351,792.629 c -1.706,3.359 -1.544,7.364 0.427,10.575 1.971,3.211 5.468,5.168 9.236,5.168 z"
     style="fill:#780000"
     id="path2" /><path
     d="m 593.31235,808.372 h -132.334 v -28.037 l 53.396,-81.949 h 38.973 c 1.61,0 3.107,-0.826 3.965,-2.189 0.858,-1.362 0.957,-3.07 0.261,-4.522 l -7.121,-14.866 h 48.359 l 46.853,63.323 -52.352,68.239 z"
     style="fill:#3d3d3d"
     id="path3" /><path
     d="m 280.90835,280.903 37.484,-73.627 16.704,81.73 -54.187,-8.104 z"
     style="fill:#292929"
     id="path4" /><path
     d="m 368.75935,108.046 44.704,-88.045 87.407,172.152 -132.111,-84.106 z"
     style="fill:#292929"
     id="path5" /><path
     d="m 492.83635,187.717 -57.465,115.515 -100.262,-14.336 -16.717,-81.65 4.55,-8.961 169.895,-10.57 z"
     style="fill:#3d3d3d"
     id="path6" /><path
     d="m 435.44635,303.16 -27.233,54.772 -145.925,-40.187 18.706,-36.842 154.451,22.257 z"
     style="fill:#333333"
     id="path7" /><path
     d="m 408.21335,357.923 87.372,-176.179 83.055,163.579 -170.426,12.6 z"
     style="fill:#292929"
     id="path8" /><path
     d="m 429.88035,395.539 112.752,195.539 30.97,51.545 25.209,34.187 h -48.359 l -132.763,-277.175 c -0.731,-1.527 13.862,-3.978 12.191,-4.096 z m -153.406,281.271 h -106.561 l 123.379,-125.477 55.576,-25.662 z"
     style="fill:#333333"
     id="path9" /><path
     d="m 703.41835,591.078 h -95.138 l 54.015,-80.994 z"
     style="fill:#333333"
     id="path10" /><path
     d="m 573.60235,641.691 34.111,-50.613 95.814,0.214 22.37,44.059 -80.232,104.783 -72.062,-98.443 z"
     style="fill:#292929"
     id="path11" /><path
     d="m 254.45035,333.184 7.839,-15.439 146.184,40.187 42.183,74 -12.177,11.105 -20.789,-43.402 c -0.779,-1.627 -2.423,-2.662 -4.226,-2.662 -1.804,0 -3.447,1.035 -4.226,2.662 l -59.59,124.409 -56.355,27.289 -38.842,-218.15 z"
     style="fill:#292929"
     id="path12" /><path
     d="m 662.29435,510.084 -89.318,132.539 -164.986,-285.086 170.65,-12.214 83.655,164.761 z"
     style="fill:#3d3d3d"
     id="path13" /><path
     d="m 27.567351,807.867 c -2.451,-0.776 -4.584,-2.411 -5.967,-4.663 -1.971,-3.211 -2.132,-7.215 -0.427,-10.575 l 233.275999,-459.446 38.842,217.573 -250.205999,257.204 -12.988,0.201 c -0.866,0.013 -1.715,-0.088 -2.531,-0.294 z"
     style="fill:#3d3d3d"
     id="path14" /><path
     d="m 651.61935,732.281 74.277,-96.931 79.856,157.279 c 1.706,3.359 1.544,7.364 -0.427,10.575 -1.971,3.211 -5.468,5.168 -9.236,5.168 h -202.198 z"
     style="fill:#333333"
     id="path15" /></svg>
